<?xml version="1.0" encoding="utf-8"?>
<!-- Generator: Adobe Illustrator 22.0.0, SVG Export Plug-In . SVG Version: 6.00 Build 0)  -->
<svg version="1.1" id="Layer_1" xmlns="http://www.w3.org/2000/svg" xmlns:xlink="http://www.w3.org/1999/xlink" x="0px" y="0px"
	 viewBox="0 0 500 500" style="enable-background:new 0 0 500 500;" xml:space="preserve">
<style type="text/css">
	.st0{fill:#83E1E5;}
	.st1{fill:#FDDF7F;}
	.st2{fill:#ECF4F7;}
	.st3{fill:#AAB1BA;}
	.st4{fill:#1C1D21;}
</style>
<g>
	<path class="st0" d="M262.023,84.674V41.008h21.584L250,5l0,0l-33.606,36.008h21.584v43.776c4.164-0.386,8.38-0.593,12.645-0.593
		C254.463,84.191,258.263,84.36,262.023,84.674z"/>
</g>
<g>
	<path class="st0" d="M346.427,124.042l34.016-34.016l15.262,15.263l1.698-49.226l0,0l-49.225,1.698l15.262,15.262l-35.486,35.486
		C334.569,113.135,340.753,118.334,346.427,124.042z"/>
</g>
<g>
	<path class="st0" d="M428.845,165.688v21.584h-46.949c1.89,7.774,3.108,15.81,3.588,24.045h43.362v21.584l36.008-33.606l0,0
		L428.845,165.688z"/>
</g>
<g>
	<path class="st0" d="M172.555,109.018L136.56,73.023l15.262-15.262l-49.225-1.698l0,0l1.698,49.226l15.262-15.263l34.645,34.646
		C159.837,118.93,165.975,113.685,172.555,109.018z"/>
</g>
<g>
	<path class="st0" d="M71.155,187.272v-21.584l-36.008,33.606l0,0L71.155,232.9v-21.584h44.605
		c0.48-8.235,1.698-16.271,3.588-24.045L71.155,187.272L71.155,187.272z"/>
</g>
<g>
	<path class="st1" d="M450.893,357.082l-55.928-57.458H250H105.035l-55.928,57.458c-3.423,3.516-0.931,9.418,3.976,9.418h51.952
		v118.425c0,5.564,4.51,10.074,10.074,10.074h269.782c5.564,0,10.074-4.51,10.074-10.074V366.5h51.952
		C451.824,366.5,454.315,360.599,450.893,357.082z"/>
</g>
<g>
	<path class="st2" d="M359.225,299.624c16.64-22.455,26.5-50.235,26.5-80.331c0-74.615-60.488-135.103-135.103-135.103
		s-135.103,60.488-135.103,135.103c0,30.095,9.859,57.875,26.498,80.331H359.225z"/>
</g>
<g>
	<path class="st3" d="M209.209,259.203c-14.346,0-25.976,11.63-25.976,25.977c0,5.347,1.617,10.314,4.386,14.445H230.8
		c2.769-4.131,4.386-9.099,4.386-14.445C235.185,270.832,223.555,259.203,209.209,259.203z"/>
</g>
<g>
	<path class="st3" d="M292.035,259.203c-14.346,0-25.977,11.63-25.977,25.977c0,5.347,1.617,10.314,4.386,14.445h43.181
		c2.769-4.131,4.386-9.099,4.386-14.445C318.012,270.832,306.382,259.203,292.035,259.203z"/>
</g>
<g>
	<circle class="st3" cx="250.622" cy="142.186" r="25.977"/>
</g>
<g>
	<circle class="st3" cx="328.763" cy="199.294" r="25.977"/>
</g>
<g>
	<circle class="st3" cx="172.481" cy="199.294" r="25.977"/>
</g>
<g>
	
		<ellipse transform="matrix(0.1602 -0.9871 0.9871 0.1602 -5.6815 431.2941)" class="st3" cx="250.622" cy="218.986" rx="24.944" ry="24.944"/>
</g>
<path class="st4" d="M65.303,290.948v-6.535h-6.535c-2.762,0-5-2.238-5-5c0-2.762,2.238-5,5-5h6.535v-6.534c0-2.762,2.238-5,5-5
	c2.762,0,5,2.238,5,5v6.534h6.534c2.762,0,5,2.238,5,5c0,2.762-2.238,5-5,5h-6.534v6.535c0,2.762-2.239,5-5,5
	C67.541,295.948,65.303,293.71,65.303,290.948z M429.697,262.879c-2.762,0-5,2.238-5,5v6.534h-6.534c-2.762,0-5,2.238-5,5
	c0,2.762,2.238,5,5,5h6.534v6.535c0,2.762,2.238,5,5,5s5-2.238,5-5v-6.535h6.535c2.762,0,5-2.238,5-5c0-2.762-2.238-5-5-5h-6.535
	v-6.534C434.697,265.117,432.459,262.879,429.697,262.879z M216.393,46.009h16.584v24.519c0,2.762,2.238,5,5,5c2.762,0,5-2.238,5-5
	V41.009c0-2.762-2.238-5-5-5h-10.078L250,12.328l22.1,23.681h-10.078c-2.762,0-5,2.238-5,5v29.518c0,2.762,2.238,5,5,5
	c2.762,0,5-2.238,5-4.999V46.009h16.584c1.991,0,3.792-1.182,4.586-3.007c0.793-1.826,0.427-3.949-0.931-5.404L253.655,1.589
	C252.71,0.575,251.386,0,250,0s-2.71,0.575-3.656,1.589l-33.606,36.009c-1.359,1.455-1.724,3.578-0.931,5.404
	C212.601,44.827,214.402,46.009,216.393,46.009z M342.169,101.364l24.806-24.806c1.953-1.952,1.953-5.118,0-7.07l-7.126-7.127
	l32.372-1.117l-1.117,32.372l-7.125-7.126c-0.938-0.939-2.21-1.465-3.536-1.465s-2.597,0.527-3.535,1.465l-22.876,22.876
	c-1.953,1.952-1.953,5.118,0,7.07c0.975,0.977,2.256,1.465,3.535,1.465c1.28,0,2.56-0.488,3.536-1.464l19.341-19.34l11.726,11.727
	c1.408,1.409,3.518,1.845,5.369,1.116c1.852-0.73,3.096-2.49,3.164-4.479l1.698-49.226c0.048-1.386-0.482-2.729-1.462-3.708
	c-0.979-0.981-2.324-1.502-3.708-1.462l-49.226,1.698c-1.99,0.068-3.75,1.311-4.479,3.164c-0.731,1.851-0.292,3.961,1.116,5.368
	l11.727,11.728l-21.27,21.271c-1.953,1.952-1.953,5.118,0,7.07C337.05,103.317,340.218,103.317,342.169,101.364z M468.265,195.637
	l-36.008-33.606c-1.456-1.36-3.577-1.723-5.404-0.931c-1.825,0.794-3.007,2.595-3.007,4.586v16.584H397.26c-2.762,0-5,2.238-5,5
	c0,2.762,2.238,5,5,5h31.586c2.762,0,5-2.238,5-5v-10.078l23.68,22.102l-23.68,22.101v-10.078c0-2.762-2.238-5-5-5h-28.844
	c-2.762,0-5,2.238-5,5c0,2.762,2.238,5,5,5h23.844v16.584c0,1.991,1.182,3.792,3.007,4.586c0.641,0.278,1.319,0.414,1.992,0.414
	c1.243,0,2.468-0.463,3.412-1.347l36.008-33.607c1.014-0.945,1.589-2.27,1.589-3.655S469.279,196.582,468.265,195.637z
	 M102.462,109.939c1.85,0.734,3.961,0.293,5.369-1.116l11.726-11.727l20.963,20.962c0.975,0.977,2.256,1.465,3.535,1.465
	s2.559-0.488,3.536-1.465c1.953-1.952,1.953-5.118,0-7.07L123.093,86.49c-0.937-0.939-2.209-1.465-3.535-1.465
	s-2.598,0.527-3.536,1.465l-7.125,7.126l-1.117-32.372l32.373,1.117l-7.127,7.127c-0.939,0.937-1.465,2.209-1.465,3.535
	c0,1.326,0.527,2.597,1.465,3.535l24.744,24.743c1.951,1.953,5.119,1.953,7.07,0c1.953-1.952,1.953-5.118,0-7.07l-21.208-21.208
	l11.727-11.728c1.408-1.407,1.846-3.516,1.116-5.368c-0.73-1.852-2.49-3.096-4.479-3.164l-49.226-1.698
	c-1.39-0.04-2.729,0.482-3.708,1.462c-0.981,0.979-1.51,2.322-1.462,3.708l1.698,49.225
	C99.366,107.45,100.609,109.21,102.462,109.939z M71.155,237.901c0.673,0,1.351-0.135,1.992-0.412
	c1.825-0.794,3.007-2.595,3.007-4.586v-16.584h25.442c2.762,0,5-2.238,5-5c0-2.762-2.238-5-5-5H71.154c-2.762,0-5,2.238-5,5v10.078
	l-23.68-22.102l23.68-22.101v10.078c0,2.762,2.238,5,5,5h32.881c2.762,0,5-2.238,5-5c0-2.762-2.238-5-5-5H76.154v-16.584
	c0-1.991-1.182-3.792-3.007-4.586c-1.827-0.792-3.949-0.428-5.404,0.931L31.735,195.64c-1.014,0.945-1.589,2.27-1.589,3.655
	s0.575,2.71,1.589,3.655l36.008,33.606C68.687,237.438,69.912,237.901,71.155,237.901z M250.622,248.931
	c-16.512,0-29.944-13.433-29.944-29.944s13.433-29.944,29.944-29.944s29.944,13.433,29.944,29.944S267.134,248.931,250.622,248.931z
	 M250.622,238.93c10.997,0,19.944-8.947,19.944-19.944c0-10.997-8.947-19.944-19.944-19.944s-19.944,8.947-19.944,19.944
	C230.678,229.983,239.625,238.93,250.622,238.93z M219.645,142.185c0-17.081,13.896-30.977,30.977-30.977
	s30.977,13.896,30.977,30.977s-13.897,30.977-30.977,30.977S219.645,159.266,219.645,142.185z M229.645,142.186
	c0,11.567,9.41,20.977,20.977,20.977s20.977-9.41,20.977-20.977c0-11.567-9.411-20.977-20.977-20.977
	S229.645,130.619,229.645,142.186z M183.177,289.837c0.021,0,0.044,0,0.065,0c2.731,0,4.963-2.197,4.999-4.936
	c0.148-11.413,9.554-20.699,20.968-20.699c11.413,0,20.82,9.286,20.968,20.7c0.036,2.739,2.268,4.935,4.999,4.935
	c0.021,0,0.044,0,0.066,0c2.761-0.036,4.97-2.303,4.935-5.065c-0.22-16.855-14.112-30.569-30.968-30.569
	c-16.858,0-30.749,13.714-30.968,30.57C178.206,287.533,180.415,289.801,183.177,289.837z M266.002,289.837c0.022,0,0.045,0,0.066,0
	c2.732,0,4.963-2.196,4.999-4.935c0.149-11.414,9.555-20.7,20.968-20.7c11.414,0,20.821,9.286,20.968,20.699
	c0.036,2.761,2.294,5.005,5.064,4.936c2.762-0.036,4.971-2.303,4.936-5.064c-0.219-16.856-14.111-30.57-30.968-30.57
	s-30.748,13.714-30.968,30.569C261.032,287.533,263.241,289.801,266.002,289.837z M328.763,230.271
	c-17.08,0-30.977-13.896-30.977-30.977c0-17.081,13.896-30.977,30.977-30.977s30.977,13.896,30.977,30.977
	C359.74,216.375,345.843,230.271,328.763,230.271z M328.763,220.271c11.567,0,20.977-9.41,20.977-20.977
	s-9.411-20.977-20.977-20.977c-11.566,0-20.977,9.41-20.977,20.977S317.196,220.271,328.763,220.271z M172.481,230.271
	c-17.08,0-30.977-13.896-30.977-30.977c0-17.081,13.896-30.977,30.977-30.977s30.976,13.896,30.976,30.977
	C203.457,216.375,189.562,230.271,172.481,230.271z M193.457,199.294c0-11.567-9.409-20.977-20.976-20.977
	c-11.566,0-20.977,9.41-20.977,20.977s9.41,20.977,20.977,20.977S193.457,210.861,193.457,199.294z M454.476,353.594
	c2.965,3.046,3.813,7.544,2.159,11.46c-1.654,3.916-5.468,6.447-9.718,6.447h-46.952v113.425c0,1.782-0.327,3.486-0.898,5.074
	h24.966c2.762,0,5,2.238,5,5c0,2.762-2.238,5-5,5h-39.142h-4.942H120.051h-4.943H75.966c-2.762,0-5-2.238-5-5c0-2.762,2.238-5,5-5
	h24.967c-0.57-1.588-0.898-3.292-0.898-5.074V371.501H53.083c-4.25,0-8.064-2.53-9.718-6.445c-1.653-3.916-0.807-8.414,2.158-11.461
	l55.929-57.458c0.941-0.967,2.233-1.513,3.583-1.513h144.952c0.004,0,0.009-0.001,0.013-0.001h144.965
	c1.35,0,2.642,0.546,3.583,1.513L454.476,353.594z M53.084,361.501h51.941c0.003,0,0.006-0.001,0.01-0.001h72.717
	c3.205,0,6.324-1.316,8.559-3.612l51.845-53.264h-131.01L52.69,360.569c-0.088,0.091-0.254,0.261-0.111,0.597
	C52.721,361.501,52.957,361.501,53.084,361.501z M389.964,371.501h-67.716c-3.017,0-5.989-0.644-8.726-1.832
	c-2.605-1.13-4.997-2.75-7-4.807l-54.378-55.867L250,306.793l-56.523,58.07c-4.106,4.218-9.837,6.638-15.725,6.638h-67.717v113.425
	c0,2.798,2.275,5.074,5.073,5.074h4.943H245V335.853c0-2.762,2.238-5,5-5c2.762,0,5,2.238,5,5V490h124.949h4.941
	c2.798,0,5.074-2.276,5.074-5.074V371.501z M447.311,360.569l-54.455-55.945H261.845l51.845,53.264
	c1.12,1.151,2.462,2.055,3.926,2.671c1.457,0.613,3.034,0.941,4.632,0.941h72.717c0.003,0,0.006,0.001,0.01,0.001h51.943
	c0.127,0,0.363,0,0.505-0.335C447.565,360.83,447.4,360.661,447.311,360.569z M366.087,289.53c2.41,1.353,5.457,0.491,6.806-1.917
	c11.667-20.813,17.833-44.438,17.833-68.32c0-77.253-62.85-140.103-140.103-140.103S110.52,142.04,110.52,219.293
	c0,23.882,6.166,47.507,17.831,68.32c0.916,1.636,2.615,2.557,4.366,2.557c0.827,0,1.666-0.206,2.44-0.639
	c2.409-1.35,3.268-4.397,1.917-6.806c-10.829-19.324-16.554-41.258-16.554-63.432c0-71.739,58.363-130.104,130.103-130.104
	s130.103,58.364,130.103,130.103c0,22.173-5.725,44.108-16.556,63.432C362.819,285.133,363.678,288.18,366.087,289.53z M59.479,490
	h-3.584c-2.762,0-5,2.238-5,5c0,2.762,2.238,5,5,5h3.584c2.762,0,5-2.238,5-5C64.479,492.238,62.241,490,59.479,490z M444.104,490
	h-3.584c-2.762,0-5,2.238-5,5c0,2.762,2.238,5,5,5h3.584c2.762,0,5-2.238,5-5C449.104,492.238,446.866,490,444.104,490z"/>
</svg>
